<svg id="logo" class="header__logo--svg" width="301" height="168" viewBox="0 0 301 168" fill="none" xmlns="http://www.w3.org/2000/svg">
<path d="M3 63.3142L4.46 56.6766" stroke="#1AA3FF" stroke-width="2.5" stroke-miterlimit="10"/>
<path d="M3 63.3142L4.46 56.6766" stroke="#1AA3FF" stroke-width="2.5" stroke-miterlimit="10"/>
<path d="M4.45999 56.6766L8.47499 50.8206" stroke="#1AA3FF" stroke-width="2.5" stroke-miterlimit="10"/>
<path d="M4.45999 56.6766L8.47499 50.8206" stroke="#1AA3FF" stroke-width="2.5" stroke-miterlimit="10"/>
<path d="M81.475 56.6766L79.285 63.704" stroke="#1AA3FF" stroke-width="2.5" stroke-miterlimit="10"/>
<path d="M8.47498 50.8206L15.41 45.3554" stroke="#1AA3FF" stroke-width="2.5" stroke-miterlimit="10"/>
<path d="M8.47498 50.8206L15.41 45.3554" stroke="#1AA3FF" stroke-width="2.5" stroke-miterlimit="10"/>
<path d="M85.125 50.04L81.475 56.6766" stroke="#1AA3FF" stroke-width="2.5" stroke-miterlimit="10"/>
<path d="M15.41 45.3554L24.9 40.6708" stroke="#1AA3FF" stroke-width="2.5" stroke-miterlimit="10"/>
<path d="M15.41 45.3554L24.9 40.6708" stroke="#1AA3FF" stroke-width="2.5" stroke-miterlimit="10"/>
<path d="M89.87 43.7942L85.125 50.04" stroke="#1AA3FF" stroke-width="2.5" stroke-miterlimit="10"/>
<path d="M24.9 40.6708L36.945 36.7668" stroke="#1AA3FF" stroke-width="2.5" stroke-miterlimit="10"/>
<path d="M24.9 40.6708L36.945 36.7668" stroke="#1AA3FF" stroke-width="2.5" stroke-miterlimit="10"/>
<path d="M96.075 37.5474L89.87 43.7942" stroke="#1AA3FF" stroke-width="2.5" stroke-miterlimit="10"/>
<path d="M36.945 36.7668L51.18 34.0342" stroke="#1AA3FF" stroke-width="2.5" stroke-miterlimit="10"/>
<path d="M36.945 36.7668L51.18 34.0342" stroke="#1AA3FF" stroke-width="2.5" stroke-miterlimit="10"/>
<path d="M102.645 32.472L96.075 37.5474" stroke="#1AA3FF" stroke-width="2.5" stroke-miterlimit="10"/>
<path d="M51.18 34.0342L67.605 32.472" stroke="#1AA3FF" stroke-width="2.5" stroke-miterlimit="10"/>
<path d="M51.18 34.0342L67.605 32.472" stroke="#1AA3FF" stroke-width="2.5" stroke-miterlimit="10"/>
<path d="M51.18 34.0342L78.555 30.9108" stroke="#1AA3FF" stroke-width="2.5" stroke-miterlimit="10"/>
<path d="M67.605 32.4694L85.125 32.0822" stroke="#1AA3FF" stroke-width="2.5" stroke-miterlimit="10"/>
<path d="M67.605 32.4694L85.125 32.0822" stroke="#1AA3FF" stroke-width="2.5" stroke-miterlimit="10"/>
<path d="M96.075 28.1782L112.5 24.664" stroke="#1AA3FF" stroke-width="2.5" stroke-miterlimit="10"/>
<path d="M85.125 32.0822L104.105 32.4694" stroke="#1AA3FF" stroke-width="2.5" stroke-miterlimit="10"/>
<path d="M112.5 24.664L132.21 18.808" stroke="#1AA3FF" stroke-width="2.5" stroke-miterlimit="10"/>
<path d="M104.105 32.472L123.45 34.424" stroke="#1AA3FF" stroke-width="2.5" stroke-miterlimit="10"/>
<path d="M104.105 32.472L123.45 34.424" stroke="#1AA3FF" stroke-width="2.5" stroke-miterlimit="10"/>
<path d="M143.89 15.6846L132.21 18.808" stroke="#1AA3FF" stroke-width="2.5" stroke-miterlimit="10"/>
<path d="M123.45 34.424L143.525 37.1566" stroke="#1AA3FF" stroke-width="2.5" stroke-miterlimit="10"/>
<path d="M123.45 34.424L143.525 37.1566" stroke="#1AA3FF" stroke-width="2.5" stroke-miterlimit="10"/>
<path d="M155.935 13.3428L143.89 15.6846" stroke="#1AA3FF" stroke-width="2.5" stroke-miterlimit="10"/>
<path d="M143.525 37.1566L163.235 41.0606" stroke="#1AA3FF" stroke-width="2.5" stroke-miterlimit="10"/>
<path d="M143.525 37.1566L163.235 41.0606" stroke="#1AA3FF" stroke-width="2.5" stroke-miterlimit="10"/>
<path d="M169.075 11.7806L155.935 13.3428" stroke="#1AA3FF" stroke-width="2.5" stroke-miterlimit="10"/>
<path d="M163.235 41.0606L182.58 46.136" stroke="#1AA3FF" stroke-width="2.5" stroke-miterlimit="10"/>
<path d="M163.235 41.0606L182.58 46.136" stroke="#1AA3FF" stroke-width="2.5" stroke-miterlimit="10"/>
<path d="M182.215 11L169.075 11.7806" stroke="#1AA3FF" stroke-width="2.5" stroke-miterlimit="10"/>
<path d="M182.58 46.136L201.195 51.992" stroke="#1AA3FF" stroke-width="2.5" stroke-miterlimit="10"/>
<path d="M182.58 46.136L201.195 51.992" stroke="#1AA3FF" stroke-width="2.5" stroke-miterlimit="10"/>
<path d="M195.72 11H182.215" stroke="#1AA3FF" stroke-width="2.5" stroke-miterlimit="10"/>
<path d="M201.195 51.992L218.715 58.6286" stroke="#1AA3FF" stroke-width="2.5" stroke-miterlimit="10"/>
<path d="M201.195 51.992L218.715 58.6286" stroke="#1AA3FF" stroke-width="2.5" stroke-miterlimit="10"/>
<path d="M209.225 12.1714L195.72 11" stroke="#1AA3FF" stroke-width="2.5" stroke-miterlimit="10"/>
<path d="M218.715 58.6286L234.775 66.0468" stroke="#1AA3FF" stroke-width="2.5" stroke-miterlimit="10"/>
<path d="M218.715 58.6286L234.775 66.0468" stroke="#1AA3FF" stroke-width="2.5" stroke-miterlimit="10"/>
<path d="M222.73 14.1234L209.225 12.1714" stroke="#1AA3FF" stroke-width="2.5" stroke-miterlimit="10"/>
<path d="M234.775 66.0468L249.01 73.8548" stroke="#1AA3FF" stroke-width="2.5" stroke-miterlimit="10"/>
<path d="M234.775 66.0468L249.01 73.8548" stroke="#1AA3FF" stroke-width="2.5" stroke-miterlimit="10"/>
<path d="M235.87 16.856L222.73 14.1234" stroke="#1AA3FF" stroke-width="2.5" stroke-miterlimit="10"/>
<path d="M249.01 73.8548L261.42 82.0526" stroke="#1AA3FF" stroke-width="2.5" stroke-miterlimit="10"/>
<path d="M249.01 73.8548L261.42 82.0526" stroke="#1AA3FF" stroke-width="2.5" stroke-miterlimit="10"/>
<path d="M248.28 20.3702L235.87 16.856" stroke="#1AA3FF" stroke-width="2.5" stroke-miterlimit="10"/>
<path d="M261.42 82.0526L271.64 90.6422" stroke="#1AA3FF" stroke-width="2.5" stroke-miterlimit="10"/>
<path d="M261.42 82.0526L271.64 90.6422" stroke="#1AA3FF" stroke-width="2.5" stroke-miterlimit="10"/>
<path d="M259.595 25.0548L248.28 20.3702" stroke="#1AA3FF" stroke-width="2.5" stroke-miterlimit="10"/>
<path d="M271.64 90.6422L279.305 98.84" stroke="#1AA3FF" stroke-width="2.5" stroke-miterlimit="10"/>
<path d="M270.18 30.1302L259.595 25.0548" stroke="#1AA3FF" stroke-width="2.5" stroke-miterlimit="10"/>
<path d="M279.305 98.84L284.78 107.039" stroke="#1AA3FF" stroke-width="2.5" stroke-miterlimit="10"/>
<path d="M279.305 98.84L284.78 107.039" stroke="#1AA3FF" stroke-width="2.5" stroke-miterlimit="10"/>
<path d="M278.94 35.5954L270.18 30.1302" stroke="#1AA3FF" stroke-width="2.5" stroke-miterlimit="10"/>
<path d="M284.78 107.039L288.065 115.237" stroke="#1AA3FF" stroke-width="2.5" stroke-miterlimit="10"/>
<path d="M286.605 42.232L278.94 35.5954" stroke="#1AA3FF" stroke-width="2.5" stroke-miterlimit="10"/>
<path d="M288.065 115.237L288.795 122.655" stroke="#1AA3FF" stroke-width="2.5" stroke-miterlimit="10"/>
<path d="M292.08 48.8686L286.605 42.232" stroke="#1AA3FF" stroke-width="2.5" stroke-miterlimit="10"/>
<path d="M288.795 122.655L287.7 130.072" stroke="#1AA3FF" stroke-width="2.5" stroke-miterlimit="10"/>
<path d="M288.795 122.655L287.7 130.072" stroke="#1AA3FF" stroke-width="2.5" stroke-miterlimit="10"/>
<path d="M295.365 55.896L292.08 48.8686" stroke="#1AA3FF" stroke-width="2.5" stroke-miterlimit="10"/>
<path d="M288.795 122.655L289.525 111.333" stroke="#1AA3FF" stroke-width="2.5" stroke-miterlimit="10"/>
<path d="M287.7 130.072L284.05 136.319" stroke="#1AA3FF" stroke-width="2.5" stroke-miterlimit="10"/>
<path d="M287.7 130.072L284.05 136.319" stroke="#1AA3FF" stroke-width="2.5" stroke-miterlimit="10"/>
<path d="M296.825 63.3142L295.365 55.896" stroke="#1AA3FF" stroke-width="2.5" stroke-miterlimit="10"/>
<path d="M293.54 81.6628L291.35 94.936" stroke="#1AA3FF" stroke-width="2.5" stroke-miterlimit="10"/>
<path d="M284.05 136.319L278.575 142.175" stroke="#1AA3FF" stroke-width="2.5" stroke-miterlimit="10"/>
<path d="M284.05 136.319L278.575 142.175" stroke="#1AA3FF" stroke-width="2.5" stroke-miterlimit="10"/>
<path d="M295.73 70.7314L296.825 63.3142" stroke="#1AA3FF" stroke-width="2.5" stroke-miterlimit="10"/>
<path d="M293.54 81.6628L295.73 70.7314" stroke="#1AA3FF" stroke-width="2.5" stroke-miterlimit="10"/>
<path d="M278.575 142.175L271.275 146.859" stroke="#1AA3FF" stroke-width="2.5" stroke-miterlimit="10"/>
<path d="M278.575 142.175L271.275 146.859" stroke="#1AA3FF" stroke-width="2.5" stroke-miterlimit="10"/>
<path d="M271.275 146.859L262.515 150.763" stroke="#1AA3FF" stroke-width="2.5" stroke-miterlimit="10"/>
<path d="M271.275 146.859L262.515 150.763" stroke="#1AA3FF" stroke-width="2.5" stroke-miterlimit="10"/>
<path d="M262.515 150.763L252.295 153.887" stroke="#1AA3FF" stroke-width="2.5" stroke-miterlimit="10"/>
<path d="M262.515 150.763L252.295 153.887" stroke="#1AA3FF" stroke-width="2.5" stroke-miterlimit="10"/>
<path d="M252.295 153.887L240.98 155.839" stroke="#1AA3FF" stroke-width="2.5" stroke-miterlimit="10"/>
<path d="M252.295 153.887L240.98 155.839" stroke="#1AA3FF" stroke-width="2.5" stroke-miterlimit="10"/>
<path d="M268.72 98.4502L275.29 94.5462" stroke="#1AA3FF" stroke-width="2.5" stroke-miterlimit="10"/>
<path d="M240.98 155.839L228.935 157.01" stroke="#1AA3FF" stroke-width="2.5" stroke-miterlimit="10"/>
<path d="M240.98 155.839L228.935 157.01" stroke="#1AA3FF" stroke-width="2.5" stroke-miterlimit="10"/>
<path d="M255.945 103.915L268.72 98.4502" stroke="#1AA3FF" stroke-width="2.5" stroke-miterlimit="10"/>
<path d="M228.935 157.01H216.16" stroke="#1AA3FF" stroke-width="2.5" stroke-miterlimit="10"/>
<path d="M228.935 157.01H216.16" stroke="#1AA3FF" stroke-width="2.5" stroke-miterlimit="10"/>
<path d="M241.71 108.991L255.945 103.915" stroke="#1AA3FF" stroke-width="2.5" stroke-miterlimit="10"/>
<path d="M216.16 157.01L202.655 156.229" stroke="#1AA3FF" stroke-width="2.5" stroke-miterlimit="10"/>
<path d="M216.16 157.01L202.655 156.229" stroke="#1AA3FF" stroke-width="2.5" stroke-miterlimit="10"/>
<path d="M225.285 112.895L241.71 108.991" stroke="#1AA3FF" stroke-width="2.5" stroke-miterlimit="10"/>
<path d="M202.655 156.229L189.515 154.667" stroke="#1AA3FF" stroke-width="2.5" stroke-miterlimit="10"/>
<path d="M202.655 156.229L189.515 154.667" stroke="#1AA3FF" stroke-width="2.5" stroke-miterlimit="10"/>
<path d="M207.765 116.018L225.285 112.895" stroke="#1AA3FF" stroke-width="2.5" stroke-miterlimit="10"/>
<path d="M189.515 154.667L176.375 151.935" stroke="#1AA3FF" stroke-width="2.5" stroke-miterlimit="10"/>
<path d="M189.515 154.667L176.375 151.935" stroke="#1AA3FF" stroke-width="2.5" stroke-miterlimit="10"/>
<path d="M188.785 117.97L207.765 116.018" stroke="#1AA3FF" stroke-width="2.5" stroke-miterlimit="10"/>
<path d="M176.375 151.935L163.235 148.421" stroke="#1AA3FF" stroke-width="2.5" stroke-miterlimit="10"/>
<path d="M176.375 151.935L163.235 148.421" stroke="#1AA3FF" stroke-width="2.5" stroke-miterlimit="10"/>
<path d="M169.075 119.141L188.785 117.97" stroke="#1AA3FF" stroke-width="2.5" stroke-miterlimit="10"/>
<path d="M163.235 148.421L150.825 144.517" stroke="#1AA3FF" stroke-width="2.5" stroke-miterlimit="10"/>
<path d="M163.235 148.421L150.825 144.517" stroke="#1AA3FF" stroke-width="2.5" stroke-miterlimit="10"/>
<path d="M148.635 118.751L169.075 119.138" stroke="#1AA3FF" stroke-width="2.5" stroke-miterlimit="10"/>
<path d="M150.825 144.517L139.145 139.442" stroke="#1AA3FF" stroke-width="2.5" stroke-miterlimit="10"/>
<path d="M150.825 144.517L139.145 139.442" stroke="#1AA3FF" stroke-width="2.5" stroke-miterlimit="10"/>
<path d="M128.195 117.579L148.635 118.751" stroke="#1AA3FF" stroke-width="2.5" stroke-miterlimit="10"/>
<path d="M139.145 139.442L127.83 133.976" stroke="#1AA3FF" stroke-width="2.5" stroke-miterlimit="10"/>
<path d="M139.145 139.442L127.83 133.976" stroke="#1AA3FF" stroke-width="2.5" stroke-miterlimit="10"/>
<path d="M108.485 115.237L128.195 117.579" stroke="#1AA3FF" stroke-width="2.5" stroke-miterlimit="10"/>
<path d="M127.83 133.976L117.61 128.12" stroke="#1AA3FF" stroke-width="2.5" stroke-miterlimit="10"/>
<path d="M127.83 133.976L117.61 128.12" stroke="#1AA3FF" stroke-width="2.5" stroke-miterlimit="10"/>
<path d="M99.36 113.675L108.485 115.237" stroke="#1AA3FF" stroke-width="2.5" stroke-miterlimit="10"/>
<path d="M127.83 133.976L115.785 127.339" stroke="#1AA3FF" stroke-width="2.5" stroke-miterlimit="10"/>
<path d="M117.61 128.12L108.485 121.874" stroke="#1AA3FF" stroke-width="2.5" stroke-miterlimit="10"/>
<path d="M117.61 128.12L108.485 121.874" stroke="#1AA3FF" stroke-width="2.5" stroke-miterlimit="10"/>
<path d="M90.965 115.627L80.38 111.333" stroke="#1AA3FF" stroke-width="2.5" stroke-miterlimit="10"/>
<path d="M108.485 121.874L100.455 115.237" stroke="#1AA3FF" stroke-width="2.5" stroke-miterlimit="10"/>
<path d="M108.485 121.874L100.455 115.237" stroke="#1AA3FF" stroke-width="2.5" stroke-miterlimit="10"/>
<path d="M80.38 111.333L54.465 102.744" stroke="#1AA3FF" stroke-width="2.5" stroke-miterlimit="10"/>
<path d="M100.455 115.237L93.52 108.21" stroke="#1AA3FF" stroke-width="2.5" stroke-miterlimit="10"/>
<path d="M39.5 96.888L54.465 102.744" stroke="#1AA3FF" stroke-width="2.5" stroke-miterlimit="10"/>
<path d="M93.52 108.21L88.045 100.792" stroke="#1AA3FF" stroke-width="2.5" stroke-miterlimit="10"/>
<path d="M93.52 108.21L88.045 100.792" stroke="#1AA3FF" stroke-width="2.5" stroke-miterlimit="10"/>
<path d="M27.09 90.6422L39.5 96.888" stroke="#1AA3FF" stroke-width="2.5" stroke-miterlimit="10"/>
<path d="M88.045 100.792L83.665 93.3748" stroke="#1AA3FF" stroke-width="2.5" stroke-miterlimit="10"/>
<path d="M88.045 100.792L83.665 93.3748" stroke="#1AA3FF" stroke-width="2.5" stroke-miterlimit="10"/>
<path d="M16.87 84.0046L27.09 90.6422" stroke="#1AA3FF" stroke-width="2.5" stroke-miterlimit="10"/>
<path d="M83.665 93.3748L80.38 85.9566" stroke="#1AA3FF" stroke-width="2.5" stroke-miterlimit="10"/>
<path d="M83.665 93.3748L80.38 85.9566" stroke="#1AA3FF" stroke-width="2.5" stroke-miterlimit="10"/>
<path d="M9.57001 77.368L16.87 84.0046" stroke="#1AA3FF" stroke-width="2.5" stroke-miterlimit="10"/>
<path d="M80.38 85.9566L78.555 78.5394" stroke="#1AA3FF" stroke-width="2.5" stroke-miterlimit="10"/>
<path d="M80.38 85.9566L78.92 78.5394" stroke="#1AA3FF" stroke-width="2.5" stroke-miterlimit="10"/>
<path d="M4.82501 70.3406L9.57001 77.368" stroke="#1AA3FF" stroke-width="2.5" stroke-miterlimit="10"/>
<path d="M78.556 78.5394L78.19 71.1222" stroke="#1AA3FF" stroke-width="2.5" stroke-miterlimit="10"/>
<path d="M78.92 78.5394L78.19 71.1222" stroke="#1AA3FF" stroke-width="2.5" stroke-miterlimit="10"/>
<path d="M3 63.3142L4.825 70.3406" stroke="#1AA3FF" stroke-width="2.5" stroke-miterlimit="10"/>
<path d="M79.285 63.704L78.19 71.1222" stroke="#1AA3FF" stroke-width="2.5" stroke-miterlimit="10"/>
<path d="M78.555 30.9108L96.075 28.1782" stroke="#1AA3FF" stroke-width="2.5" stroke-miterlimit="10"/>
<path d="M85.125 32.0822L102.645 32.4694" stroke="#1AA3FF" stroke-width="2.5" stroke-miterlimit="10"/>
<path d="M102.645 32.472H104.105" stroke="#1AA3FF" stroke-width="2.5" stroke-miterlimit="10"/>
<path d="M271.64 90.6422L275.29 94.5462" stroke="#1AA3FF" stroke-width="2.5" stroke-miterlimit="10"/>
<path d="M275.29 94.5462L279.305 98.84" stroke="#1AA3FF" stroke-width="2.5" stroke-miterlimit="10"/>
<path d="M284.78 107.039L287.7 114.456" stroke="#1AA3FF" stroke-width="2.5" stroke-miterlimit="10"/>
<path d="M287.7 114.456L288.065 115.237" stroke="#1AA3FF" stroke-width="2.5" stroke-miterlimit="10"/>
<path d="M288.065 115.237L288.43 118.751" stroke="#1AA3FF" stroke-width="2.5" stroke-miterlimit="10"/>
<path d="M288.43 118.751L288.795 122.655" stroke="#1AA3FF" stroke-width="2.5" stroke-miterlimit="10"/>
<path d="M291.716 92.984L291.35 94.936" stroke="#1AA3FF" stroke-width="2.5" stroke-miterlimit="10"/>
<path d="M291.35 94.936L289.525 111.333" stroke="#1AA3FF" stroke-width="2.5" stroke-miterlimit="10"/>
<path d="M107.755 123.045L90.965 115.627" stroke="#1AA3FF" stroke-width="2.5" stroke-miterlimit="10"/>
<path d="M90.965 115.627L89.87 114.847" stroke="#1AA3FF" stroke-width="2.5" stroke-miterlimit="10"/>
<path d="M117.61 128.12L115.785 127.339" stroke="#1AA3FF" stroke-width="2.5" stroke-miterlimit="10"/>
<path d="M100.455 115.237L99.36 113.675" stroke="#1AA3FF" stroke-width="2.5" stroke-miterlimit="10"/>
<path d="M99.36 113.675L93.52 108.21" stroke="#1AA3FF" stroke-width="2.5" stroke-miterlimit="10"/>
<path d="M115.785 127.339L107.755 123.045" stroke="#1AA3FF" stroke-width="2.5" stroke-miterlimit="10"/>
<path d="M117.61 128.12L115.785 127.339" stroke="#1AA3FF" stroke-width="2.5" stroke-miterlimit="10"/>
<path d="M100.455 115.237L99.36 113.675" stroke="#1AA3FF" stroke-width="2.5" stroke-miterlimit="10"/>
<path d="M99.36 113.675L93.52 108.21" stroke="#1AA3FF" stroke-width="2.5" stroke-miterlimit="10"/>
<path d="M115.785 127.339L107.755 123.045" stroke="#1AA3FF" stroke-width="2.5" stroke-miterlimit="10"/>
</svg>
