<svg id="white_blue" data-name="white+blue" xmlns="http://www.w3.org/2000/svg" viewBox="0 0 545 625"><defs><style>.cls-1{fill:#1aa3ff;}.cls-1,.cls-2{stroke:#000;stroke-linecap:round;stroke-miterlimit:10;stroke-width:5px;}.cls-2{fill:#fff;}</style></defs><title>LOGO</title><path id="blue" class="cls-1" d="M132,310l-32-32a5.67,5.67,0,0,1,0-8L272,98a5.67,5.67,0,0,1,8,0L492,310l32,32a5.67,5.67,0,0,1,0,8L280,594a5.67,5.67,0,0,1-8,0L27.93,349.93a5.67,5.67,0,0,1-1.66-4V276.27L272,522a5.67,5.67,0,0,0,8,0L452,350a5.67,5.67,0,0,0,0-8L280,170a5.67,5.67,0,0,0-8,0Z"/><g id="white"><path class="cls-2" d="M348,454,452,350a5.67,5.67,0,0,0,0-8l-32-32L280,450a5.67,5.67,0,0,1-8,0L132,310,98.94,276.94a4.15,4.15,0,0,1,0-5.87l173.8-173.8a4.61,4.61,0,0,1,6.52,0L525.65,343.65V274a5.67,5.67,0,0,0-1.66-4L279.26,25.26a4.61,4.61,0,0,0-6.52,0L28,270a5.67,5.67,0,0,0,0,8L272,522a5.67,5.67,0,0,0,8,0Z"/></g></svg>